<?xml version="1.0" standalone="no"?>
<!DOCTYPE svg PUBLIC "-//W3C//DTD SVG 20010904//EN"
 "http://www.w3.org/TR/2001/REC-SVG-20010904/DTD/svg10.dtd">
<svg version="1.0" xmlns="http://www.w3.org/2000/svg"
 width="1214.000000pt" height="845.000000pt" viewBox="0 0 1214.000000 845.000000"
 preserveAspectRatio="xMidYMid meet">

<g transform="translate(0.000000,845.000000) scale(0.100000,-0.100000)"
fill="#000000" stroke="none">
<path d="M3085 8146 c-6 -7 -655 -505 -1443 -1107 -788 -601 -1431 -1097
-1430 -1101 2 -4 925 -907 2053 -2005 1127 -1099 2067 -2021 2090 -2050 22
-28 45 -51 51 -50 6 1 379 -356 828 -793 540 -526 823 -795 838 -796 14 -1 51
27 112 85 354 338 1521 1473 1651 1607 88 90 1047 1017 2130 2059 1084 1042
1970 1901 1970 1909 0 8 -430 346 -955 751 -525 406 -1002 774 -1060 819 -58
45 -274 212 -480 371 -206 158 -380 294 -386 302 -17 20 -5954 20 -5969 -1z
m554 -20 c-2 -2 -256 -114 -564 -249 -308 -135 -587 -257 -620 -271 -85 -38
-74 -28 315 268 l335 256 269 0 c148 0 267 -2 265 -4z m2350 0 c-2 -2 -355
-142 -784 -311 -429 -169 -782 -308 -786 -310 -3 -2 -166 135 -363 305 -196
170 -363 311 -369 314 -7 2 510 5 1147 5 638 1 1157 -1 1155 -3z m2411 -19
c-20 -19 -575 -518 -666 -599 -21 -19 -28 -17 -815 293 -437 171 -803 315
-814 320 -11 4 506 8 1150 8 l1170 1 -25 -23z m987 -249 c194 -150 351 -274
349 -275 -3 -4 -1297 535 -1305 543 -2 2 133 4 300 4 l304 0 352 -272z m-2517
-62 c454 -178 825 -328 825 -333 0 -13 -1598 -1444 -1609 -1440 -18 6 -1645
1452 -1642 1461 1 6 1577 634 1596 636 3 0 377 -146 830 -324z m-2836 4 c195
-168 351 -308 347 -312 -3 -4 -522 -338 -1151 -742 -701 -450 -1146 -729
-1148 -721 -2 7 40 341 93 741 80 613 98 730 113 739 42 25 1368 603 1380 602
7 -1 172 -139 366 -307z m5093 8 c384 -161 706 -297 715 -303 13 -8 39 -160
128 -733 61 -398 110 -728 108 -733 -4 -11 -2321 1432 -2324 1447 -2 7 664
614 673 614 1 0 316 -132 700 -292z m-4929 -1052 l-192 -698 -118 -59 c-66
-33 -116 -64 -113 -69 3 -5 55 15 115 45 60 30 118 55 127 54 10 0 65 -24 123
-54 l105 -53 -70 -32 c-38 -17 -92 -41 -118 -52 -28 -12 -44 -25 -39 -30 5 -5
57 13 123 42 l114 51 788 -7 c518 -5 787 -4 787 3 0 10 -667 23 -1237 23 -178
0 -323 4 -323 8 0 4 -54 34 -121 67 -94 47 -119 64 -116 77 75 284 382 1388
387 1388 8 0 1644 -1448 1648 -1459 1 -4 -48 -25 -109 -46 -61 -22 -110 -44
-110 -50 1 -5 4 -10 9 -11 4 0 51 -21 104 -46 78 -37 96 -50 92 -65 -2 -10
-139 -841 -304 -1848 -165 -1007 -303 -1843 -306 -1858 -3 -16 -9 -25 -14 -20
-4 4 -319 836 -700 1848 -381 1012 -697 1844 -701 1849 -5 5 -11 7 -14 4 -4
-3 307 -835 689 -1849 383 -1014 694 -1844 692 -1846 -5 -5 -3321 3725 -3321
3735 0 5 22 28 50 51 l50 41 295 0 c567 0 1270 13 1270 23 0 7 -263 8 -778 3
l-778 -7 -48 37 c-26 20 -44 40 -39 44 14 14 2286 1470 2289 1467 2 -1 -83
-317 -188 -701z m3726 -15 c108 -387 195 -705 194 -706 -2 -2 -64 -28 -138
-58 l-135 -56 -761 -10 -760 -11 -108 43 c-59 24 -107 47 -108 51 0 8 1614
1457 1618 1453 1 -1 91 -319 198 -706z m987 -12 c635 -396 1156 -722 1157
-724 2 -2 -40 -24 -93 -50 l-96 -46 -727 6 -727 7 -141 60 -142 60 -16 56
c-70 254 -368 1321 -372 1335 -3 9 -3 17 -1 17 3 0 524 -324 1158 -721z m1673
-9 c372 -393 676 -717 676 -720 0 -3 -46 -22 -102 -42 l-103 -36 -367 -6 -368
-6 -104 50 c-89 42 -105 54 -110 77 -8 40 -216 1392 -216 1406 0 7 3 7 9 2 5
-6 313 -332 685 -725z m-8347 678 c-4 -18 -45 -328 -92 -688 -46 -360 -87
-669 -90 -685 -4 -27 -16 -36 -90 -73 l-85 -42 -395 11 -395 11 -96 42 c-53
23 -95 46 -95 52 1 12 1323 1403 1335 1403 4 1 6 -14 3 -31z m-57 18 c0 -3
-297 -316 -660 -698 l-660 -693 -88 -44 c-80 -40 -92 -44 -152 -41 -36 1 -132
5 -214 9 l-148 6 958 732 c528 403 960 733 962 733 1 0 2 -2 2 -4z m8788 -779
c518 -400 942 -733 942 -740 0 -9 -2 -9 -8 1 -6 9 -68 14 -231 18 -220 5 -223
6 -294 36 -52 22 -83 43 -112 76 -22 26 -318 340 -657 699 -340 359 -618 655
-618 658 0 8 -64 57 978 -748z m-2701 -674 c62 -26 110 -50 105 -53 -4 -4 -60
-25 -124 -48 l-117 -41 -113 41 c-62 22 -116 43 -121 47 -8 8 208 99 238 101
11 0 71 -21 132 -47z m-7304 1 c48 -20 87 -40 87 -43 0 -9 -171 -82 -190 -81
-18 1 -140 77 -140 88 0 10 119 71 140 72 8 0 54 -16 103 -36z m9224 -15 c102
-47 103 -43 -42 -94 l-81 -28 -67 37 c-37 21 -67 40 -67 42 0 3 37 22 83 44
45 21 83 39 84 39 0 1 41 -17 90 -40z m-8079 -10 c23 -17 42 -33 42 -35 0 -7
-64 -62 -86 -74 -18 -10 -33 -6 -95 26 l-74 37 80 39 c43 21 82 38 85 38 3 0
25 -14 48 -31z m4082 -9 c55 -22 89 -41 80 -44 -8 -3 -57 -19 -108 -35 l-93
-29 -86 39 c-47 22 -82 43 -78 47 11 11 148 59 170 60 11 1 63 -16 115 -38z
m5163 8 c42 -17 77 -34 77 -38 0 -3 -38 -22 -83 -41 l-84 -36 -84 43 -84 42
35 15 c85 34 116 45 130 46 8 1 50 -13 93 -31z m-10586 -76 l92 -57 1547
-1735 c851 -954 1554 -1744 1563 -1755 9 -11 1 -6 -18 10 -69 61 -3686 3587
-3689 3596 -3 6 74 8 205 4 l208 -7 92 -56z m873 32 l215 -6 92 -46 c51 -26
93 -53 93 -60 0 -7 500 -849 1111 -1870 611 -1021 1120 -1873 1132 -1892 l20
-35 -40 40 c-36 36 -3340 3737 -3370 3776 -11 13 1 22 90 62 l102 46 170 -4
c94 -3 267 -7 385 -11z m6245 -1 c5 -6 57 -28 115 -48 58 -21 110 -40 116 -44
7 -4 -245 -681 -691 -1859 -386 -1020 -706 -1861 -711 -1870 -8 -12 -94 486
-318 1839 -170 1019 -309 1863 -310 1873 -1 16 18 26 117 57 l118 37 761 11
c419 6 764 13 766 16 7 7 26 1 37 -12z m3205 3 c0 -7 34 -28 75 -49 41 -20 75
-40 75 -45 0 -8 -3365 -3771 -3432 -3837 -27 -27 -36 -32 -28 -17 9 20 1737
2896 2168 3611 78 129 139 237 137 241 -3 4 46 26 108 49 l112 41 190 1 c151
1 516 10 583 15 6 0 12 -4 12 -10z m-1108 -50 c43 -22 78 -46 78 -52 0 -9
-3207 -3614 -3291 -3699 l-30 -30 26 70 c15 39 331 873 702 1855 372 982 676
1791 678 1799 1 8 56 34 136 62 l134 48 745 -6 745 -6 77 -41z m1835 44 c41 0
73 -4 71 -9 -3 -9 -3806 -3671 -3849 -3706 l-24 -20 16 20 c9 11 740 828 1623
1815 976 1090 1604 1800 1601 1808 -3 8 0 12 7 10 14 -5 187 67 203 84 7 7 56
8 144 4 74 -3 168 -6 208 -6z m-8042 -2045 c889 -1001 1630 -1831 1645 -1845
24 -21 81 -168 344 -880 174 -469 314 -856 311 -858 -3 -3 -65 53 -137 124
-73 71 -455 443 -848 826 l-715 697 -1135 1897 c-624 1043 -1137 1902 -1139
1908 -2 6 10 -2 27 -19 16 -16 757 -849 1647 -1850z m2604 25 c167 -1004 305
-1832 307 -1840 2 -9 12 -16 22 -17 12 -1 554 600 1631 1808 888 995 1616
1808 1618 1806 3 -4 -2257 -3769 -2295 -3824 -26 -37 -1537 -1504 -1540 -1495
-1 5 132 379 297 833 349 959 308 843 296 847 -6 2 -148 -376 -316 -839 -168
-463 -309 -837 -312 -832 -3 5 -146 389 -318 854 l-312 844 304 1847 c167
1016 306 1844 310 1840 3 -4 142 -828 308 -1832z"/>
<path d="M3780 5900 c0 -14 190 -102 209 -97 9 2 -33 27 -92 55 -118 57 -117
57 -117 42z"/>
</g>
</svg>
